<svg width="100" height="100" viewBox="0 0 100 100" xmlns="http://www.w3.org/2000/svg">
  <g fill="#555">
    <!-- Círculo central -->
    <circle cx="50" cy="50" r="15" fill="#555" />
    <!-- Corpo da engrenagem -->
    <path d="M50 20 L55 20 L58 10 L42 10 L45 20 Z" transform="rotate(0 50 50)" />
    <path d="M50 20 L55 20 L58 10 L42 10 L45 20 Z" transform="rotate(45 50 50)" />
    <path d="M50 20 L55 20 L58 10 L42 10 L45 20 Z" transform="rotate(90 50 50)" />
    <path d="M50 20 L55 20 L58 10 L42 10 L45 20 Z" transform="rotate(135 50 50)" />
    <path d="M50 20 L55 20 L58 10 L42 10 L45 20 Z" transform="rotate(180 50 50)" />
    <path d="M50 20 L55 20 L58 10 L42 10 L45 20 Z" transform="rotate(225 50 50)" />
    <path d="M50 20 L55 20 L58 10 L42 10 L45 20 Z" transform="rotate(270 50 50)" />
    <path d="M50 20 L55 20 L58 10 L42 10 L45 20 Z" transform="rotate(315 50 50)" />
    <circle cx="50" cy="50" r="30" fill="none" stroke="#555" stroke-width="10" />
  </g>
  <!-- Furo central -->
  <circle cx="50" cy="50" r="8" fill="#555" />
</svg>
